<svg style="display:block;width:100%;height:100%;overflow:visible" viewBox="0 0 454.40625 568"><path fill="none" stroke="black" stroke-width="1.2" stroke-linecap="round" stroke-linejoin="round" d="M223.3538557816723 568 Q229.99177982632497 562.32 229.8710974904525 559.48 Q229.75041515458005 556.64 229.65707994674878 553.8 Q229.5637447389175 550.96 228.14934186032133 548.12 Q226.73493898172512 545.28 226.62848756635393 542.44 Q226.52203615098273 539.6 225.16429056401586 536.76 Q223.806544977049 533.92 225.37977572410597 531.0799999999999 Q226.95300647116298 528.24 225.2735548668015 525.4 Q223.59410326244003 522.56 226.3476513685938 519.72 Q229.10119947474755 516.88 226.51650743966925 514.04 Q223.93181540459096 511.2 224.33735394629656 508.36 Q224.74289248800216 505.52 223.9712007403566 502.68 Q223.1995089927111 499.84000000000003 225.4802131179121 497 Q227.76091724311308 494.15999999999997 228.952247778311 491.32 Q230.14357831350893 488.48 228.03423400109094 485.64 Q225.92488968867295 482.79999999999995 225.74307363757214 479.96 Q225.56125758647136 477.12 227.47079766530706 474.28 Q229.38033774414276 471.44 226.7909309937305 468.6 Q224.20152424331826 465.76 224.3472324814109 463.5846808510638 L224.4929407195036 461.4093617021276 C224.4929407195036 461.4093617021276 228.89135714515814 457.0587234042553 228.89135714515814 457.0587234042553 C228.89257929425867 457.0570459206322 227.77387926898274 452.71294567877015 227.77099512856728 452.70808510638295 C227.78129567123707 452.70058227604943 229.2927156534533 448.3708196859078 229.29163494266987 448.35744680851064 C229.27500253569923 448.3244165980544 226.17341466240953 444.01943588838344 226.12640146347735 444.0068085106383 C226.1520472955465 443.9664133456479 231.92221561939192 439.7014451736319 231.91028216453537 439.65617021276597 C232.0355501393733 439.55751736236317 230.83734382124544 435.3193555544788 230.8161185095636 435.3055319148936 C230.6776747728781 435.2725241310818 223.75587828781352 431.0138742820768 223.90441141544213 430.95489361702124 C223.78362402043615 430.9256505490698 224.7720232454464 426.60431500049253 224.80454314898878 426.60425531914893 C225.15126057410936 426.39077903953944 233.18139477082386 422.49898579194246 233.30608466580725 422.25361702127657 C233.06497798542745 422.1512414868726 220.14345407919845 418.32348445968233 219.78898042515112 417.90297872340426 C219.4195199765506 417.8467336277792 234.87659608575404 413.7637512097807 234.639370206282 413.5523404255319 C234.00245012533762 413.4615721127827 221.6142781724633 409.35295282438125 221.02811863920346 409.2017021276596 C220.59209856066866 408.6485530953206 231.09151685183858 405.4082193862961 231.2296246105646 404.8510638297872 C230.83424285372803 404.24856911817926 227.75634387577486 401.45349858655976 228.6932007151236 400.50042553191486 C229.70466679538023 399.79777757877275 225.6730224436294 396.50994698376826 225.14870780434185 396.14978723404255 C224.58871026367356 396.052422526605 238.49462274434583 392.32271923517175 238.92460124724187 391.7991489361702 C239.22214775296428 390.66945436736506 225.24735343130106 387.4882429749165 225.85927194563854 387.4485106382979 C225.81420265157467 385.9184830887646 225.8194745078325 384.3136488023511 226.88882397061346 383.0978723404255 C227.40908038899684 382.5171456361658 220.4109783537702 380.5592507511068 222.02478132556138 378.74723404255315 C223.74892052305722 378.03917724853125 223.53653099056592 375.79859721580016 222.01281975197867 374.39659574468084 C221.74321110566726 373.51127499560175 219.0813382832285 370.221847828673 218.95185693212554 370.0459574468085 C218.2248244544776 368.60306905470713 236.71517940521088 366.5765350973385 235.19415006910046 365.69531914893616 C235.28318774271037 364.92100864065526 231.05535579426055 363.36745081244163 231.93278526766727 361.3446808510638 C231.52605182667153 359.19408891403526 229.33740679888274 358.442028695019 231.2984498577637 356.9940425531915 C230.45366603843013 355.66787709213776 246.45602917149847 355.4036363466899 246.18997755500772 352.6434042553191 C249.5327782970043 352.56596739839273 251.3280783020272 349.49521533945097 253.64636674467317 348.29276595744676 C251.07922552728596 346.3592352095693 218.10746307243025 344.0786329838026 221.49481420626952 343.94212765957445 C219.58223411483178 341.91480865988456 204.44598051495274 341.60466157760413 204.0335124103654 339.5914893617021 C199.9076242077943 338.3084893952172 228.5026325429096 337.0115819118077 226.44269026095012 335.2408510638297 C225.2778591512943 332.2795977910327 197.67869324012642 331.78497003602655 199.36982070896582 330.8902127659575 C203.86242419181806 330.80929312510654 197.20651683599127 326.99526255718166 198.2942035112943 326.5395744680851 C197.20361718759887 325.399417089894 210.8465290523491 322.75194526473746 213.05929227574612 322.18893617021274 C217.20042603191757 321.65640178092724 200.5072305244177 321.99614904795953 196.92187788037583 317.8382978723404 C195.7625415921478 314.59896819422374 217.0467164992883 314.60478860747105 222.89301662342754 313.48765957446807 C228.36956317507395 307.4367536750848 202.12281140084534 311.2499709597947 200.77153556235442 309.13702127659576 C197.34405292619968 302.5212908315958 230.84832353423076 306.1701105118462 231.47771819891062 304.7863829787234 C224.6942712507466 297.9225378401146 245.29818022207942 306.53900311946177 246.4805469189513 300.43574468085103 C248.25911701949667 297.2924810891429 263.45416964528664 296.63204057940834 263.8536036679352 296.08510638297867 C265.3183993644873 292.80562220601996 271.59901152536645 293.0225889194281 276.7235173100121 291.73446808510636 C277.6135162891938 289.3441246670183 274.74512986761147 294.50223559942566 267.7513225152871 287.38382978723405 C261.1730547371178 278.48857070663166 270.3569838474008 284.8170431039952 272.2350773989503 283.0331914893617 C270.8713443522702 276.5594988929873 221.2898417198005 283.76808948082345 212.41665340649942 278.6825531914893 C212.66781762807986 271.2043532257923 189.086293283059 278.02400641503914 191.85845373023736 274.33191489361695 C190.69911791352519 272.9385394472061 281.6176677629325 273.3761063778199 281.151769523593 269.98127659574465 C286.17523352785093 262.8479418974108 265.7418411777725 271.7639838827695 255.3092482940201 265.63063829787234 C252.63182763377122 264.94807757914634 195.64872391780915 270.69924904281334 196.17055872828215 261.28 C203.87725551678665 249.89682967666872 193.90860083039638 266.9532288668235 197.58189722216994 256.9293617021276 C208.56326774794132 255.4606001099744 153.48025130611674 262.2323961532483 160.32671247747083 252.57872340425527 C165.08611911851364 250.53271521255155 187.6156281795058 259.1837645292461 198.6679489195455 248.22808510638296 C200.31192058654162 242.1827293836261 303.7388632799784 247.7794510603596 305.39650378923284 243.87744680851063 C292.52704004586207 238.9753440428982 157.51410097501167 240.1647870678828 170.61087808895286 239.52680851063826 C169.62537257463208 230.44878616935665 282.23613851393964 240.25369039220993 287.4952050244207 235.17617021276592 C275.6689085569216 224.11875529996934 163.45979513642516 239.60492315295704 158.15463655561416 230.82553191489356 C152.15108407124117 216.35559882871016 135.50532664537778 232.62267915142917 137.7174085061836 226.47489361702125 C146.24327519642168 224.56802361738488 198.7957588586521 226.93868898876482 214.2980506216406 222.12425531914892 C200.46250895636197 212.06834833255724 282.1643050306061 233.79189364256882 277.42254040085203 217.77361702127655 C265.0084418576262 208.22390624835793 157.88871305534627 226.15111726075176 155.7122264672027 213.4229787234042 C138.1707111631293 201.70576280243802 162.74935841486146 226.60371956336337 173.6341971537206 209.07234042553188 C155.32673883789693 190.66512067599936 207.268788776641 220.05636377806167 207.96129933520083 204.7217021276595 C224.29761991867449 193.57526196835823 349.7333554763411 219.7869146686095 336.1450207064325 200.3710638297872 C322.5296612134049 193.98857560926433 311.8323087795692 200.55453866395231 320.29640756126946 196.0204255319149 C318.4468196668237 185.45893781450178 157.01854282273052 192.58380088946643 166.60668662762944 191.66978723404253 C166.72685389921728 179.88004875971868 211.22017819847213 189.70765583765984 222.59138211738738 187.31914893617017 C201.17744235723342 182.52551275291998 165.55436955008003 201.4396272828909 147.56324945093615 182.9685106382978 C150.67904502129198 177.51976354086898 160.34957137423942 200.10219001167698 163.46790273715933 178.6178723404255 C148.4102144858452 170.59831123611187 351.81071812407976 174.52726107367835 347.88021552140367 174.26723404255318 C347.2868747934631 157.34912350383843 332.15134970339625 179.61391384519925 335.1500160034074 169.91659574468082 C355.8502701169565 160.14471390000924 169.64537854671687 182.16146387981468 157.03647689112807 165.56595744680845 C168.56673358077046 145.5871036682635 241.6085863057395 184.2602322303631 233.6527489789695 161.21531914893615 C243.77708758520347 136.10713287824177 108.78858214775728 166.77771201578278 114.5986563723118 156.86468085106378 C104.33592655193739 135.9778674601364 155.3330296642927 162.5968477892108 141.75269188484168 152.51404255319147 C150.90575303616785 142.60260395246803 70.84559096559262 150.69378448250686 78.40031861246425 148.1634042553191 C82.19577605893129 125.09746327504814 338.157425203804 146.6934162744089 311.47225298756723 143.81276595744674 C304.81776255361274 127.79346137373219 216.88903005861488 159.25806186864986 208.8211388421286 139.46212765957443 C232.70008353538253 135.2792312006537 302.85679130690374 138.83345687216402 283.12411279519387 135.11148936170213 C255.7388234812785 111.51150411096827 125.99879553740499 132.25613497100522 141.21315314043193 130.76085106382976 C126.08775992670672 109.46941149438703 147.23843822422646 129.0889437775524 119.60130074531088 126.4102127659574 C100.00314579101305 110.6562915468537 103.93856474934464 130.13235432589943 125.63948008916805 122.05957446808503 C114.87798649779151 109.88633531076732 79.77423663937519 144.05022218857133 61.75529300414067 117.70893617021272 C35.83298245576309 107.234744468425 207.67250869015618 147.35529625391655 195.79039552509016 113.35829787234042 C171.0655840480952 99.95344261174597 351.08633440138834 140.27396438416747 342.07583544101874 109.00765957446805 C370.2492990486837 87.167983950088 127.60627517308404 134.25783786646446 112.98907177233993 104.65702127659569 C119.69476252167469 70.25177905618122 61.2529447819916 107.6989057911268 73.93050651268805 100.30638297872338 C79.32886711206908 76.76294999854318 239.551027653879 113.84715493820951 227.15561123420352 95.95574468085101 C216.0645399815032 86.91920253783194 346.93416105537386 116.68425518945033 321.7958691710494 91.6051063829787 C350.9716518288712 90.63511788021238 232.86147863692943 108.255341411127 251.26376485286988 87.25446808510634 C250.09704905470053 69.33629478902121 379.55127565982446 102.08475334861481 416.8805905138702 82.90382978723397 C428.9231478272474 67.97609156121108 210.883385830691 110.58735023737961 228.12891766337805 78.55319148936167 C195.4731901507185 59.46722399831742 -38.32611451231653 86.94261129423359 -4.539448422363336 74.2025531914893 C-13.438653900097997 63.97055908180114 475.6883783881458 83.26791182818579 467.56154202237974 69.85191489361699 C448.022569532403 27.235452219920376 136.61784660426025 88.62576063548369 91.47495370762115 65.50127659574463 C87.72853669372452 23.045758061975263 76.66116651586749 95.03806244281955 119.45903764372537 61.15063829787226 C163.2068611518164 47.681643670849205 292.9091354752123 64.87677354345702 318.3045752583423 56.799999999999955" style="stroke-dasharray: 6468.96; stroke-dashoffset: 0;"></path></svg>